# xmcd
# 
# Track frame offsets:
#     150
#     25135
#     36699
#     47994
#     61020
#     88427
#     100492
#     120408
#     132873
#     149444
#     170155
#     186437
#     202219
#     225483
#     243726
#     260856
#     271867
#     283277
#     300681
#     331742
# 
# Disc length: 4733
# 
# Revision: 3
# Processed by: cddbd v1.5.2PL0 Copyright (c) Steve Scherf et al.
# Submitted via: fre:ac v1.0.31
# 
DISCID=42127b14
DTITLE=Renaud - Mes Chansons Préférées De Moi (2002)
DYEAR=2004
DGENRE=Chanson
TTITLE0=Hexagone
TTITLE1=Amoureux de Paname
TTITLE2=Laisse béton
TTITLE3=Chanson pour Pierrot
TTITLE4=Dans mon HLM
TTITLE5=Manu
TTITLE6=Dès que le vent soufflera
TTITLE7=Mistral gagnant
TTITLE8=P'tite conne
TTITLE9=Putain de camion
TTITLE10=La ballade Nord irlandaise
TTITLE11=Marchand de cailloux
TTITLE12=La ballade de Willy Brouillard
TTITLE13=Son bleu
TTITLE14=C'est quand qu'on va où
TTITLE15=La médaille
TTITLE16=Je suis un voyou
TTITLE17=Manhattan-Kaboul
TTITLE18=Docteur Renaud, Mister Renard
TTITLE19=Data
EXTD=
EXTT0=
EXTT1=
EXTT2=
EXTT3=
EXTT4=
EXTT5=
EXTT6=
EXTT7=
EXTT8=
EXTT9=
EXTT10=
EXTT11=
EXTT12=
EXTT13=
EXTT14=
EXTT15=
EXTT16=
EXTT17=
EXTT18=
EXTT19=
PLAYORDER=
